# xmcd CD database file
#
# Track frame offsets:
#	150
#	10072
#	19655
#	37252
#	54602
#	66000
#	76957
#	89260
#	100765
#	118625
#	136272
#	149737
#	162815
#	181795
#
# Disc length: 2677 seconds
#
# Revision: 0
# Processed by: cddbd v1.5.1PL0 Copyright (c) Steve Scherf et al.
# Submitted via: CDex 1.51
#
DISCID=b40a730e
DTITLE=Chu Berry - A Giant of the Tenor Sax - Commodore Classics
DYEAR=1900
DGENRE=Jazz
TTITLE0=Sittin' In
TTITLE1=Sittin' In - No.2
TTITLE2=Stardust
TTITLE3=Body and Soul
TTITLE4=Forty Six West Fifty Two
TTITLE5=Forty Six West Fifty Two - No.2
TTITLE6=Blowing Up a Breeze
TTITLE7=Blowing Up a Breeze - No.2
TTITLE8=On the Sunny Side of the Street
TTITLE9=On the Sunny Side of the Street - No.2
TTITLE10=Monday at Minton's
TTITLE11=Monday at Minton's - No.2
TTITLE12=Gee, Baby Ain't I Good to You
TTITLE13=Gee, Baby Ain't I Good to You - No.2
EXTD=
EXTT0=
EXTT1=
EXTT2=
EXTT3=
EXTT4=
EXTT5=
EXTT6=
EXTT7=
EXTT8=
EXTT9=
EXTT10=
EXTT11=
EXTT12=
EXTT13=
PLAYORDER=
